# xmcd CD database file
#
# Track frame offsets:
#	150
#	31560
#	65945
#	81052
#
# Disc length: 1608 seconds
#
# Revision: 4
# Processed by: cddbd v1.5.2PL0 Copyright (c) Steve Scherf et al.
# Submitted via: CDex 1.51
#
DISCID=29064604
DTITLE=גידי גוב - דירה להשכיר
DYEAR=2000
DGENRE=Children Stories
TTITLE0=דירה להשכיר
TTITLE1=רפואה שלמה
TTITLE2=שלושה חתולים שחורים
TTITLE3=מעשה בשלושה אגוזים
EXTD=YEAR: 2000
EXTT0=
EXTT1=
EXTT2=
EXTT3=
PLAYORDER=
